PathFileType	4	(X/Y/Z)	C:\Users\italobelli\Desktop\GitHub\PTbot_officialCBL\Personal_Results\ABD01_noisy2.trc
DataRate	CameraRate	NumFrames	NumMarkers	Units	OrigDataRate	OrigDataStartFrame	OrigNumFrames
104.666667	104.666667	51	9	m	104.666667	413	1100
Frame#	Time		gu		centelbow		EpL		centpxt8		centijc7		ij		ts		aa		ai
			X1	Y1	Z1	X2	Y2	Z2	X3	Y3	Z3	X4	Y4	Z4	X5	Y5	Z5	X6	Y6	Z6	X7	Y7	Z7	X8	Y8	Z8	X9	Y9	Z9

413	3.9363	-0.08536	0.0091736	0.15813	-0.12782	-0.1432	0.33617	-0.13503	-0.11631	0.35257	-0.046816	-0.15316	-0.008669	-0.046816	0.031938	-0.008669	0	0	0	-0.13244	0.014916	0.038556	-0.11664	0.039607	0.15428	-0.15277	-0.092413	0.069856
414	3.9459	-0.085431	0.0096729	0.15798	-0.12801	-0.14097	0.33755	-0.13528	-0.11391	0.35362	-0.046816	-0.15316	-0.008669	-0.046816	0.031938	-0.008669	0	0	0	-0.13238	0.014654	0.038408	-0.11677	0.039996	0.15401	-0.1526	-0.092535	0.070243
415	3.9554	-0.085499	0.010167	0.15783	-0.12819	-0.13875	0.33886	-0.13552	-0.11153	0.35461	-0.046816	-0.15316	-0.008669	-0.046816	0.031938	-0.008669	0	0	0	-0.13232	0.014396	0.038268	-0.11689	0.040379	0.15375	-0.15242	-0.09265	0.070628
416	3.965	-0.085562	0.010656	0.15768	-0.12836	-0.13654	0.34012	-0.13575	-0.10917	0.35555	-0.046816	-0.15316	-0.008669	-0.046816	0.031938	-0.008669	0	0	0	-0.13226	0.014141	0.038137	-0.11701	0.040758	0.15348	-0.15224	-0.092757	0.071009
417	3.9745	-0.085622	0.01114	0.15753	-0.12853	-0.13434	0.34132	-0.13596	-0.10681	0.35642	-0.046816	-0.15316	-0.008669	-0.046816	0.031938	-0.008669	0	0	0	-0.1322	0.013891	0.038016	-0.11712	0.041131	0.15322	-0.15206	-0.092855	0.071387
418	3.9841	-0.085678	0.011617	0.15739	-0.12869	-0.13215	0.34245	-0.13617	-0.10448	0.35724	-0.046816	-0.15316	-0.008669	-0.046816	0.031938	-0.008669	0	0	0	-0.13214	0.013645	0.037904	-0.11722	0.041498	0.15296	-0.15189	-0.092944	0.07176
419	3.9936	-0.085729	0.012087	0.15724	-0.12884	-0.12998	0.34352	-0.13637	-0.10216	0.35799	-0.046816	-0.15316	-0.008669	-0.046816	0.031938	-0.008669	0	0	0	-0.13208	0.013404	0.037802	-0.11732	0.041858	0.1527	-0.15172	-0.093025	0.072129
420	4.0032	-0.085776	0.012551	0.15709	-0.12899	-0.12782	0.34452	-0.13655	-0.099865	0.35867	-0.046816	-0.15316	-0.008669	-0.046816	0.031938	-0.008669	0	0	0	-0.13202	0.013167	0.03771	-0.11741	0.042213	0.15244	-0.15154	-0.093096	0.072493
421	4.0127	-0.08582	0.013017	0.15694	-0.12913	-0.12565	0.3455	-0.13673	-0.097556	0.35934	-0.046816	-0.15316	-0.008669	-0.046816	0.031938	-0.008669	0	0	0	-0.13196	0.012931	0.037622	-0.1175	0.042568	0.15219	-0.15137	-0.093163	0.072865
422	4.0223	-0.08586	0.013487	0.15679	-0.12926	-0.12345	0.34647	-0.13691	-0.095229	0.36	-0.046816	-0.15316	-0.008669	-0.046816	0.031938	-0.008669	0	0	0	-0.1319	0.012693	0.037535	-0.11758	0.042926	0.15193	-0.15119	-0.093227	0.073247
423	4.0318	-0.085897	0.01396	0.15663	-0.12938	-0.12124	0.34744	-0.13708	-0.092884	0.36065	-0.046816	-0.15316	-0.008669	-0.046816	0.031938	-0.008669	0	0	0	-0.13183	0.012454	0.03745	-0.11766	0.043287	0.15167	-0.151	-0.093289	0.073639
424	4.0414	-0.08593	0.014437	0.15647	-0.1295	-0.119	0.3484	-0.13725	-0.090522	0.36129	-0.046816	-0.15316	-0.008669	-0.046816	0.031938	-0.008669	0	0	0	-0.13176	0.012213	0.037366	-0.11775	0.043651	0.1514	-0.15082	-0.093348	0.07404
425	4.051	-0.085961	0.014916	0.15631	-0.12961	-0.11674	0.34936	-0.13742	-0.088143	0.36192	-0.046816	-0.15316	-0.008669	-0.046816	0.031938	-0.008669	0	0	0	-0.13169	0.011972	0.037284	-0.11783	0.044017	0.15114	-0.15063	-0.093405	0.074451
426	4.0605	-0.085988	0.015399	0.15614	-0.12972	-0.11446	0.3503	-0.13759	-0.08575	0.36255	-0.046816	-0.15316	-0.008669	-0.046816	0.031938	-0.008669	0	0	0	-0.13162	0.011729	0.037203	-0.1179	0.044386	0.15088	-0.15043	-0.093459	0.07487
427	4.0701	-0.086012	0.015884	0.15597	-0.12982	-0.11216	0.35124	-0.13775	-0.083342	0.36316	-0.046816	-0.15316	-0.008669	-0.046816	0.031938	-0.008669	0	0	0	-0.13155	0.011486	0.037124	-0.11798	0.044757	0.15061	-0.15024	-0.09351	0.075298
428	4.0796	-0.086033	0.016372	0.1558	-0.12991	-0.10984	0.35217	-0.13791	-0.080921	0.36377	-0.046816	-0.15316	-0.008669	-0.046816	0.031938	-0.008669	0	0	0	-0.13148	0.011242	0.037047	-0.11806	0.045129	0.15034	-0.15004	-0.093559	0.075733
429	4.0892	-0.086052	0.016861	0.15562	-0.12999	-0.10751	0.35308	-0.13806	-0.078488	0.36436	-0.046816	-0.15316	-0.008669	-0.046816	0.031938	-0.008669	0	0	0	-0.1314	0.010997	0.036971	-0.11813	0.045503	0.15008	-0.14984	-0.093605	0.076176
430	4.0987	-0.086067	0.017353	0.15544	-0.13007	-0.10516	0.35399	-0.13822	-0.076042	0.36494	-0.046816	-0.15316	-0.008669	-0.046816	0.031938	-0.008669	0	0	0	-0.13133	0.010752	0.036897	-0.1182	0.045879	0.14981	-0.14963	-0.093649	0.076626
431	4.1083	-0.086079	0.017846	0.15525	-0.13014	-0.1028	0.35489	-0.13836	-0.073586	0.36552	-0.046816	-0.15316	-0.008669	-0.046816	0.031938	-0.008669	0	0	0	-0.13125	0.010507	0.036824	-0.11827	0.046256	0.14954	-0.14943	-0.09369	0.077082
432	4.1178	-0.086089	0.018341	0.15507	-0.13021	-0.10042	0.35578	-0.13851	-0.07112	0.36608	-0.046816	-0.15316	-0.008669	-0.046816	0.031938	-0.008669	0	0	0	-0.13117	0.010261	0.036753	-0.11834	0.046634	0.14927	-0.14922	-0.093729	0.077545
433	4.1274	-0.086096	0.018837	0.15488	-0.13027	-0.09803	0.35665	-0.13864	-0.068645	0.36663	-0.046816	-0.15316	-0.008669	-0.046816	0.031938	-0.008669	0	0	0	-0.13109	0.010016	0.036684	-0.11841	0.047013	0.149	-0.149	-0.093765	0.078013
434	4.1369	-0.0861	0.019334	0.15469	-0.13032	-0.095627	0.35751	-0.13878	-0.066161	0.36717	-0.046816	-0.15316	-0.008669	-0.046816	0.031938	-0.008669	0	0	0	-0.13101	0.0097699	0.036616	-0.11848	0.047392	0.14873	-0.14879	-0.093799	0.078486
435	4.1465	-0.086102	0.019831	0.15449	-0.13037	-0.093213	0.35836	-0.13891	-0.06367	0.36769	-0.046816	-0.15316	-0.008669	-0.046816	0.031938	-0.008669	0	0	0	-0.13093	0.0095244	0.036549	-0.11854	0.047773	0.14845	-0.14858	-0.09383	0.078964
436	4.1561	-0.086101	0.020329	0.15429	-0.13041	-0.090789	0.3592	-0.13903	-0.061173	0.36821	-0.046816	-0.15316	-0.008669	-0.046816	0.031938	-0.008669	0	0	0	-0.13085	0.0092791	0.036484	-0.1186	0.048153	0.14818	-0.14836	-0.093859	0.079447
437	4.1656	-0.086098	0.020827	0.15409	-0.13044	-0.088355	0.36002	-0.13915	-0.05867	0.36871	-0.046816	-0.15316	-0.008669	-0.046816	0.031938	-0.008669	0	0	0	-0.13077	0.0090343	0.036421	-0.11866	0.048533	0.14791	-0.14814	-0.093885	0.079933
438	4.1752	-0.086092	0.021326	0.15389	-0.13047	-0.085913	0.36083	-0.13927	-0.056162	0.3692	-0.046816	-0.15316	-0.008669	-0.046816	0.031938	-0.008669	0	0	0	-0.13069	0.00879	0.03636	-0.11872	0.048914	0.14764	-0.14792	-0.093909	0.080423
439	4.1847	-0.086084	0.021823	0.15368	-0.13049	-0.083463	0.36163	-0.13938	-0.05365	0.36967	-0.046816	-0.15316	-0.008669	-0.046816	0.031938	-0.008669	0	0	0	-0.1306	0.0085463	0.0363	-0.11878	0.049294	0.14736	-0.1477	-0.09393	0.080916
440	4.1943	-0.086073	0.022321	0.15347	-0.13051	-0.081007	0.36241	-0.13948	-0.051136	0.37013	-0.046816	-0.15316	-0.008669	-0.046816	0.031938	-0.008669	0	0	0	-0.13052	0.0083034	0.036241	-0.11884	0.049673	0.14709	-0.14747	-0.093949	0.081412
441	4.2038	-0.086061	0.022817	0.15326	-0.13051	-0.078545	0.36317	-0.13958	-0.048619	0.37057	-0.046816	-0.15316	-0.008669	-0.046816	0.031938	-0.008669	0	0	0	-0.13044	0.0080614	0.036184	-0.11889	0.050052	0.14682	-0.14725	-0.093966	0.08191
442	4.2134	-0.086046	0.023313	0.15305	-0.13052	-0.076079	0.36391	-0.13967	-0.046101	0.371	-0.046816	-0.15316	-0.008669	-0.046816	0.031938	-0.008669	0	0	0	-0.13036	0.0078204	0.036129	-0.11895	0.05043	0.14654	-0.14703	-0.09398	0.08241
443	4.2229	-0.086029	0.023807	0.15284	-0.13051	-0.073608	0.36464	-0.13976	-0.043582	0.37142	-0.046816	-0.15316	-0.008669	-0.046816	0.031938	-0.008669	0	0	0	-0.13027	0.0075805	0.036075	-0.119	0.050807	0.14627	-0.1468	-0.093991	0.082911
444	4.2325	-0.086009	0.0243	0.15262	-0.1305	-0.071135	0.36536	-0.13984	-0.041064	0.37181	-0.046816	-0.15316	-0.008669	-0.046816	0.031938	-0.008669	0	0	0	-0.13019	0.0073419	0.036023	-0.11905	0.051182	0.14599	-0.14657	-0.094001	0.083413
445	4.242	-0.085988	0.02479	0.1524	-0.13049	-0.06866	0.36605	-0.13991	-0.038547	0.3722	-0.046816	-0.15316	-0.008669	-0.046816	0.031938	-0.008669	0	0	0	-0.13011	0.0071046	0.035972	-0.1191	0.051556	0.14572	-0.14635	-0.094008	0.083916
446	4.2516	-0.085965	0.025279	0.15218	-0.13046	-0.066183	0.36673	-0.13998	-0.036033	0.37256	-0.046816	-0.15316	-0.008669	-0.046816	0.031938	-0.008669	0	0	0	-0.13002	0.0068688	0.035923	-0.11915	0.051929	0.14545	-0.14612	-0.094012	0.084419
447	4.2611	-0.08594	0.025766	0.15195	-0.13044	-0.063707	0.36739	-0.14004	-0.033521	0.37291	-0.046816	-0.15316	-0.008669	-0.046816	0.031938	-0.008669	0	0	0	-0.12994	0.0066346	0.035876	-0.11919	0.052299	0.14518	-0.14589	-0.094015	0.084921
448	4.2707	-0.085914	0.02625	0.15173	-0.1304	-0.061231	0.36802	-0.1401	-0.031014	0.37324	-0.046816	-0.15316	-0.008669	-0.046816	0.031938	-0.008669	0	0	0	-0.12986	0.0064022	0.03583	-0.11924	0.052668	0.1449	-0.14566	-0.094015	0.085423
449	4.2803	-0.085885	0.026732	0.1515	-0.13036	-0.058758	0.36864	-0.14015	-0.028511	0.37356	-0.046816	-0.15316	-0.008669	-0.046816	0.031938	-0.008669	0	0	0	-0.12978	0.0061716	0.035786	-0.11928	0.053034	0.14463	-0.14544	-0.094013	0.085923
450	4.2898	-0.085855	0.02721	0.15127	-0.13031	-0.056286	0.36924	-0.14019	-0.026014	0.37386	-0.046816	-0.15316	-0.008669	-0.046816	0.031938	-0.008669	0	0	0	-0.1297	0.005943	0.035743	-0.11932	0.053397	0.14436	-0.14521	-0.094008	0.086422
451	4.2994	-0.085823	0.027686	0.15104	-0.13026	-0.053819	0.36982	-0.14022	-0.023524	0.37413	-0.046816	-0.15316	-0.008669	-0.046816	0.031938	-0.008669	0	0	0	-0.12962	0.0057165	0.035702	-0.11936	0.053758	0.14409	-0.14498	-0.094001	0.086919
452	4.3089	-0.085789	0.028158	0.15081	-0.1302	-0.051356	0.37037	-0.14025	-0.021041	0.37439	-0.046816	-0.15316	-0.008669	-0.046816	0.031938	-0.008669	0	0	0	-0.12954	0.0054922	0.035662	-0.1194	0.054116	0.14382	-0.14476	-0.093992	0.087413
453	4.3185	-0.085754	0.028626	0.15058	-0.13014	-0.048899	0.37091	-0.14026	-0.018566	0.37464	-0.046816	-0.15316	-0.008669	-0.046816	0.031938	-0.008669	0	0	0	-0.12946	0.0052702	0.035625	-0.11944	0.054471	0.14355	-0.14453	-0.09398	0.087904
454	4.328	-0.085718	0.02909	0.15034	-0.13006	-0.046448	0.37142	-0.14028	-0.0161	0.37486	-0.046816	-0.15316	-0.008669	-0.046816	0.031938	-0.008669	0	0	0	-0.12939	0.0050508	0.035588	-0.11947	0.054822	0.14328	-0.14431	-0.093967	0.088392
455	4.3376	-0.08568	0.02955	0.15011	-0.12999	-0.044004	0.37191	-0.14028	-0.013645	0.37506	-0.046816	-0.15316	-0.008669	-0.046816	0.031938	-0.008669	0	0	0	-0.12931	0.0048339	0.035553	-0.1195	0.05517	0.14301	-0.14408	-0.093951	0.088877
456	4.3471	-0.085641	0.030006	0.14987	-0.1299	-0.041569	0.37237	-0.14028	-0.0112	0.37524	-0.046816	-0.15316	-0.008669	-0.046816	0.031938	-0.008669	0	0	0	-0.12924	0.0046197	0.03552	-0.11954	0.055515	0.14275	-0.14386	-0.093933	0.089357
457	4.3567	-0.0856	0.030456	0.14963	-0.12981	-0.039143	0.37281	-0.14026	-0.0087674	0.3754	-0.046816	-0.15316	-0.008669	-0.046816	0.031938	-0.008669	0	0	0	-0.12916	0.0044083	0.035489	-0.11957	0.055855	0.14248	-0.14364	-0.093912	0.089832
458	4.3662	-0.085558	0.030902	0.14939	-0.12972	-0.036727	0.37323	-0.14024	-0.0063471	0.37555	-0.046816	-0.15316	-0.008669	-0.046816	0.031938	-0.008669	0	0	0	-0.12909	0.0041999	0.035459	-0.1196	0.056191	0.14222	-0.14342	-0.09389	0.090302
459	4.3758	-0.085515	0.031343	0.14915	-0.12962	-0.034322	0.37362	-0.14021	-0.0039404	0.37567	-0.046816	-0.15316	-0.008669	-0.046816	0.031938	-0.008669	0	0	0	-0.12902	0.0039946	0.03543	-0.11962	0.056524	0.14196	-0.1432	-0.093865	0.090767
460	4.3854	-0.085471	0.031779	0.14891	-0.12951	-0.031929	0.37399	-0.14017	-0.0015481	0.37576	-0.046816	-0.15316	-0.008669	-0.046816	0.031938	-0.008669	0	0	0	-0.12896	0.0037924	0.035404	-0.11965	0.056851	0.14169	-0.14298	-0.093838	0.091226
461	4.3949	-0.085426	0.032208	0.14866	-0.1294	-0.029549	0.37433	-0.14013	0.00082904	0.37584	-0.046816	-0.15316	-0.008669	-0.046816	0.031938	-0.008669	0	0	0	-0.12889	0.0035936	0.035378	-0.11967	0.057174	0.14143	-0.14277	-0.093809	0.091678
462	4.4045	-0.08538	0.032632	0.14842	-0.12928	-0.027182	0.37464	-0.14007	0.00319	0.3759	-0.046816	-0.15316	-0.008669	-0.046816	0.031938	-0.008669	0	0	0	-0.12883	0.0033982	0.035355	-0.1197	0.057492	0.14117	-0.14255	-0.093777	0.092124
463	4.414	-0.085333	0.03305	0.14818	-0.12916	-0.024831	0.37493	-0.14001	0.005534	0.37593	-0.046816	-0.15316	-0.008669	-0.046816	0.031938	-0.008669	0	0	0	-0.12876	0.0032063	0.035333	-0.11972	0.057805	0.14092	-0.14234	-0.093744	0.092562
